<?xml version="1.0" encoding="UTF-8" standalone="no"?>
<!-- Uploaded to: SVG Repo, www.svgrepo.com, Transformed by: SVG Repo Mixer Tools -->

<svg
   fill="#ffffff"
   width="800px"
   height="800px"
   viewBox="0 0 36 36"
   version="1.1"
   preserveAspectRatio="xMidYMid meet"
   stroke="#ffffff"
   id="svg1"
   sodipodi:docname="aboutSeddit.svg"
   inkscape:version="1.3.2 (091e20e, 2023-11-25)"
   xmlns:inkscape="http://www.inkscape.org/namespaces/inkscape"
   xmlns:sodipodi="http://sodipodi.sourceforge.net/DTD/sodipodi-0.dtd"
   xmlns="http://www.w3.org/2000/svg"
   xmlns:svg="http://www.w3.org/2000/svg">
  <defs
     id="defs1" />
  <sodipodi:namedview
     id="namedview1"
     pagecolor="#ffffff"
     bordercolor="#000000"
     borderopacity="0.25"
     inkscape:showpageshadow="2"
     inkscape:pageopacity="0.0"
     inkscape:pagecheckerboard="0"
     inkscape:deskcolor="#d1d1d1"
     inkscape:zoom="0.295"
     inkscape:cx="406.77966"
     inkscape:cy="398.30508"
     inkscape:window-width="1608"
     inkscape:window-height="970"
     inkscape:window-x="98"
     inkscape:window-y="107"
     inkscape:window-maximized="0"
     inkscape:current-layer="svg1" />
  <g
     id="SVGRepo_iconCarrier">
    <title
       id="title1">help-info-solid</title>
    <circle
       cx="20.75"
       cy="6"
       r="4"
       class="clr-i-solid clr-i-solid-path-1"
       id="circle1" />
    <path
       d="M24.84,26.23a1,1,0,0,0-1.4.29,16.6,16.6,0,0,1-3.51,3.77c-.33.25-1.56,1.2-2.08,1-.36-.11-.15-.82-.08-1.12l.53-1.57c.22-.64,4.05-12,4.47-13.3.62-1.9.35-3.77-2.48-3.32-.77.08-8.58,1.09-8.72,1.1a1,1,0,0,0,.13,2s3-.39,3.33-.42a.88.88,0,0,1,.85.44,2.47,2.47,0,0,1-.07,1.71c-.26,1-4.37,12.58-4.5,13.25a2.78,2.78,0,0,0,1.18,3,5,5,0,0,0,3.08.83h0a8.53,8.53,0,0,0,3.09-.62c2.49-1,5.09-3.66,6.46-5.75A1,1,0,0,0,24.84,26.23Z"
       class="clr-i-solid clr-i-solid-path-2"
       id="path1" />
  </g>
</svg>
