<?xml version="1.0" encoding="UTF-8" standalone="no"?>
<!-- Uploaded to: SVG Repo, www.svgrepo.com, Transformed by: SVG Repo Mixer Tools -->

<svg
   width="800px"
   height="800px"
   viewBox="0 0 24 24"
   version="1.1"
   xml:space="preserve"
   fill="#ffffff"
   stroke="#ffffff"
   id="svg2"
   sodipodi:docname="help.svg"
   inkscape:version="1.3.2 (091e20e, 2023-11-25)"
   xmlns:inkscape="http://www.inkscape.org/namespaces/inkscape"
   xmlns:sodipodi="http://sodipodi.sourceforge.net/DTD/sodipodi-0.dtd"
   xmlns="http://www.w3.org/2000/svg"
   xmlns:svg="http://www.w3.org/2000/svg"><defs
   id="defs2"><linearGradient
     id="swatch1"
     inkscape:swatch="solid"><stop
       style="stop-color:#de8787;stop-opacity:1;"
       offset="0"
       id="stop1" /></linearGradient></defs><sodipodi:namedview
   id="namedview2"
   pagecolor="#ffffff"
   bordercolor="#000000"
   borderopacity="0.25"
   inkscape:showpageshadow="2"
   inkscape:pageopacity="0.0"
   inkscape:pagecheckerboard="0"
   inkscape:deskcolor="#d1d1d1"
   inkscape:zoom="0.295"
   inkscape:cx="400"
   inkscape:cy="398.30508"
   inkscape:window-width="1608"
   inkscape:window-height="970"
   inkscape:window-x="98"
   inkscape:window-y="79"
   inkscape:window-maximized="0"
   inkscape:current-layer="svg2" />





<g
   id="SVGRepo_iconCarrier"
   style="stroke-width:0;stroke-dasharray:none"> <style
   type="text/css"
   id="style1"> .st0{opacity:0.2;fill:none;stroke:#ffffff;stroke-width:5.000000e-02;stroke-miterlimit:10;} </style>   <path
   d="M 11.51,19.99 H 7.5100001 c -1.1,0 -2,-0.9 -2,-2 v -12 c 0,-1.1 0.9,-2 2,-2 H 10.51 v 3 c 0,2.2 1.8,4 4,4 h 3 v 1.9 c 0,0.6 0.4,1 1,1 0.6,0 1,-0.4 1,-1 v -2.9 c 0,0 0,0 0,-0.1 0,-0.1 0,-0.2 -0.1,-0.3 0,0 0,-0.1 0,-0.1 0,-0.1 -0.1,-0.2 -0.2,-0.3 0,0 0,0 0,0 l -7,-7 c -0.1,-0.1 -0.2,-0.1 -0.3,-0.2 0,0 -0.1,0 -0.1,0 -0.1,0 -0.2,0 -0.3,-0.1 0,0 0,0 -0.1,0 H 7.5100001 c -2.2,0.1 -4,1.9 -4,4.1 v 12 c 0,2.2 1.8,4 4,4 H 11.51 c 0.6,0 1,-0.4 1,-1 0,-0.6 -0.4,-1 -1,-1 z m 1,-14.6 3.6,3.6 h -1.6 c -1.1,0 -2,-0.9 -2,-2 z"
   id="path1"
   style="fill:#ffffff;stroke-width:0;stroke-dasharray:none" /><path
   d="m 20.21,20.29 -1,-1 c 0,0 -0.1,-0.1 -0.2,-0.1 0.3,-0.5 0.5,-1.1 0.5,-1.7 0,-1.9 -1.6,-3.5 -3.5,-3.5 -1.9,0 -3.5,1.6 -3.5,3.5 0,1.9 1.6,3.5 3.5,3.5 0.6,0 1.2,-0.2 1.7,-0.5 0,0.1 0.1,0.1 0.1,0.2 l 1,1 c 0.2,0.2 0.5,0.3 0.7,0.3 0.2,0 0.5,-0.1 0.7,-0.3 0.4,-0.4 0.4,-1 0,-1.4 z m -4.2,-1.3 c -0.8,0 -1.5,-0.7 -1.5,-1.5 0,-0.8 0.7,-1.5 1.5,-1.5 0.8,0 1.5,0.7 1.5,1.5 0,0.8 -0.7,1.5 -1.5,1.5 z"
   id="path2"
   style="fill:#ffffff;fill-opacity:1;stroke-width:0;stroke-dasharray:none" /></g>

</svg>
